<svg xmlns="http://www.w3.org/2000/svg" viewBox="0 0 560 360" width="560" height="360" role="img" aria-label="Скважина 342: восстановление с 0,6 т/сут при 94 процентах до 8,3 т/сут при 28 процентах после КРС">
  <style>
    .ttl  { font-family:'Space Grotesk','Segoe UI',sans-serif; font-weight:700; fill:#1A1C1A; font-size:20px; }
    .lbl  { font-family:'JetBrains Mono',ui-monospace,monospace; fill:#8A8F88; font-size:11px; letter-spacing:.04em; }
    .key  { font-family:'JetBrains Mono',ui-monospace,monospace; font-size:11px; letter-spacing:.04em; }
    .grid { stroke:#D6D9D3; stroke-width:1; }
    .axis { stroke:#1A1C1A; stroke-width:1.4; }
    .deb  { fill:none; stroke:#6E7F6A; stroke-width:3; stroke-linecap:round; stroke-linejoin:round;
            stroke-dasharray:900; stroke-dashoffset:900; animation:draw 2s ease-out .3s forwards; }
    .wc   { fill:none; stroke:#8A8F88; stroke-width:2; stroke-dasharray:5 5; stroke-linecap:round;
            animation:wcdraw 2s ease-out .3s forwards; opacity:0; }
    .pt   { opacity:0; animation:show .4s ease-out 2.1s forwards; }
    .krs  { stroke:#1A1C1A; stroke-width:1; stroke-dasharray:3 3; }
    @keyframes draw   { to { stroke-dashoffset:0; } }
    @keyframes wcdraw { from{opacity:0;} to{opacity:1;} }
    @keyframes show   { to { opacity:1; } }
    @media (prefers-reduced-motion: reduce){
      .deb{animation:none;stroke-dashoffset:0;} .wc{animation:none;opacity:1;} .pt{animation:none;opacity:1;}
    }
  </style>

  <text class="ttl" x="20" y="34">Скважина 342</text>
  <text class="lbl" x="20" y="52">КРС 12.05.2026 · возврат в рабочий фонд</text>

  <line class="grid" x1="70" y1="50"  x2="500" y2="50"/>
  <line class="grid" x1="70" y1="160" x2="500" y2="160"/>
  <line class="axis" x1="70" y1="270" x2="500" y2="270"/>
  <line class="axis" x1="70" y1="50"  x2="70"  y2="270"/>
  <text class="lbl" x="38" y="54">20</text>
  <text class="lbl" x="38" y="164">10</text>
  <text class="lbl" x="48" y="274">0</text>

  <!-- КРС marker -->
  <line class="krs" x1="232" y1="50" x2="232" y2="270"/>
  <text class="lbl" x="200" y="46">КРС</text>

  <polyline class="wc" points="70,63 180,63 285,138 395,193 500,208"/>
  <polyline class="deb" points="70,263 180,263 285,237 395,204 500,179"/>

  <g class="pt">
    <circle cx="70" cy="263" r="4" fill="#6E7F6A"/>
    <text class="key" x="80" y="258" fill="#8A8F88">0,6 · 94%</text>
    <circle cx="500" cy="179" r="4.5" fill="#6E7F6A"/>
    <text class="key" x="408" y="172" fill="#1A1C1A">8,3 т/сут · 28%</text>
  </g>

  <g transform="translate(70 326)">
    <line x1="0" y1="-4" x2="22" y2="-4" stroke="#6E7F6A" stroke-width="3"/>
    <text class="key" x="28" y="0" fill="#1A1C1A">дебит, т/сут</text>
    <line x1="180" y1="-4" x2="202" y2="-4" stroke="#8A8F88" stroke-width="2" stroke-dasharray="5 5"/>
    <text class="key" x="208" y="0" fill="#8A8F88">обводнённость, %</text>
  </g>
</svg>
